<svg width="20" height="20" viewBox="0 0 20 20" fill="none" xmlns="http://www.w3.org/2000/svg">
<g clip-path="url(#clip0)">
<path fill-rule="evenodd" clip-rule="evenodd" d="M3.48111 1.43005C2.99847 1.43005 2.54399 1.59089 2.20119 1.88255C1.85644 2.17755 1.66611 2.57005 1.66611 2.98755V18.2709C1.66611 18.4442 1.80109 18.5176 1.88169 18.5467C1.96229 18.5751 2.11767 18.6034 2.25945 18.4809L7.18006 14.2376C8.58914 13.0226 10.8295 12.9934 12.2823 14.1684L17.4107 18.3209C17.6467 18.5126 17.9031 18.4484 18.0021 18.4101C18.1021 18.3734 18.3323 18.2576 18.3323 17.9792V3.04839C18.3323 2.19505 17.5233 1.49672 16.528 1.49172L3.49179 1.43005H3.48111ZM2.01602 20C1.75771 20 1.49551 19.9567 1.24496 19.8683C0.488468 19.6008 0 18.9733 0 18.2708V2.9875C0 2.18583 0.364166 1.43333 1.02646 0.869167C1.6839 0.308333 2.55499 0 3.48046 0H3.50182L16.537 0.0608333C18.4462 0.0708333 20 1.41083 20 3.04833V17.9792C20 18.75 19.4873 19.4175 18.6628 19.7233C17.8403 20.0283 16.9196 19.8892 16.2671 19.3608L11.1386 15.2083C10.3462 14.5692 9.12843 14.585 8.36125 15.2458L3.44161 19.4892C3.05511 19.8225 2.54042 20 2.01602 20V20Z" fill="#222222"/>
</g>
<defs>
<clipPath id="clip0">
<rect width="20" height="20" fill="white"/>
</clipPath>
</defs>
</svg>
