<svg width="20" height="20" viewBox="0 0 20 20" fill="none" xmlns="http://www.w3.org/2000/svg">
<g clip-path="url(#clip0)">
<path fill-rule="evenodd" clip-rule="evenodd" d="M6.1864 10.9283C6.1864 8.53234 7.89721 6.58335 9.99982 6.58335C12.1031 6.58335 13.8139 8.53234 13.8139 10.9283C13.8139 13.3234 12.1031 15.2724 9.99982 15.2724C7.89721 15.2724 6.1864 13.3234 6.1864 10.9283ZM4.87671 10.9282C4.87671 14.1468 7.17486 16.7654 9.9999 16.7654C12.8257 16.7654 15.1238 14.1468 15.1238 10.9282C15.1238 7.70955 12.8257 5.09092 9.9999 5.09092C7.17486 5.09092 4.87671 7.70955 4.87671 10.9282ZM1.9506 4.99762C2.36302 4.52718 2.91125 4.26888 3.49574 4.26888H3.8278C4.94701 4.26888 5.99796 3.77252 6.78724 2.87212L7.63838 1.90369C7.87089 1.63892 8.1802 1.49236 8.51013 1.49236H11.4888C11.8187 1.49236 12.128 1.63892 12.3612 1.9045L13.2053 2.86807C13.9967 3.7709 15.0498 4.26888 16.169 4.26888H16.5025C17.707 4.26888 18.6875 5.38467 18.6875 6.75714L18.6904 16.0171C18.6911 16.6818 18.4628 17.3077 18.0497 17.7782C17.638 18.2486 17.0891 18.5077 16.5046 18.5077H3.49787C2.29333 18.5077 1.31278 17.3911 1.31278 16.0195L1.30994 6.75795C1.30994 6.09398 1.53748 5.46888 1.9506 4.99762ZM3.49771 20H16.5044C18.4321 20 20 18.213 20 16.017L19.9972 6.75628C19.9964 4.56113 18.4286 2.77571 16.5023 2.77571H16.1688C15.4002 2.77571 14.6763 2.43401 14.1323 1.81377L13.289 0.850202C12.8083 0.302024 12.1691 0 11.4886 0H8.50997C7.84016 0 7.18456 0.309312 6.71241 0.848583L5.8627 1.81619C5.31873 2.43482 4.59559 2.77571 3.82764 2.77571H3.49558C2.56124 2.77571 1.68379 3.19028 1.02322 3.94332C0.362643 4.69555 -0.00070898 5.69555 1.03861e-06 6.7587L0.00213526 16.0194C0.00284632 18.2146 1.57073 20 3.49771 20Z" fill="#222222"/>
</g>
<defs>
<clipPath id="clip0">
<rect width="20" height="20" fill="white"/>
</clipPath>
</defs>
</svg>
