<svg width="20" height="20" viewBox="0 0 20 20" fill="none" xmlns="http://www.w3.org/2000/svg">
<g clip-path="url(#clip0)">
<path fill-rule="evenodd" clip-rule="evenodd" d="M5.66374 1.4178C4.49641 1.39685 3.36899 1.89069 2.53454 2.78858C0.724143 4.7799 0.908267 8.23078 2.92728 10.5004L2.97444 10.5543L9.99835 18.2852L17.0295 10.5513L17.074 10.5004C19.093 8.2248 19.2689 4.77391 17.464 2.79157C15.659 0.809228 12.5171 0.99978 10.4555 3.21857C10.197 3.47696 9.80153 3.47696 9.54303 3.21857C8.51267 2.08523 7.1204 1.43875 5.66374 1.4178M9.9984 20C9.82606 20.001 9.66189 19.9262 9.54035 19.7925L2.04117 11.5439L1.98675 11.481C-0.503914 8.67162 -0.682595 4.31586 1.61941 1.78481C3.79442 -0.607571 7.44062 -0.57365 10.0011 1.75887C12.5589 -0.57365 16.2078 -0.604578 18.3801 1.78481C20.6812 4.31586 20.5107 8.67361 17.9964 11.496L17.9456 11.5578L10.4555 19.7925C10.334 19.9262 10.1698 20.001 9.9984 20" fill="#222222"/>
</g>
<defs>
<clipPath id="clip0">
<rect width="20" height="20" fill="white"/>
</clipPath>
</defs>
</svg>
