<svg width="20" height="20" viewBox="0 0 20 20" fill="none" xmlns="http://www.w3.org/2000/svg">
<path fill-rule="evenodd" clip-rule="evenodd" d="M17.2896 7.59807V14.9915C17.2896 17.1213 15.3606 18.8536 12.9899 18.8536H5.57945C3.20778 18.8536 1.27881 17.1213 1.27881 14.9915V7.59807C1.27881 5.46827 3.20778 3.73602 5.57945 3.73602H12.9899C15.3606 3.73602 17.2896 5.46827 17.2896 7.59807M12.9892 2.58773H10.2021L11.462 0.892222C11.6574 0.628548 11.5775 0.271813 11.2847 0.0971187C11.1411 0.0114043 10.9675 -0.0187999 10.8039 0.0114043C10.6366 0.0416084 10.4921 0.128955 10.3984 0.255486L8.99943 2.14039L6.81139 0.502833C6.53959 0.300384 6.13689 0.33467 5.91054 0.576303C5.6851 0.819569 5.72237 1.18202 5.99235 1.38447L7.60134 2.58773H5.57874C2.50257 2.58773 0 4.83508 0 7.59754V14.991C0 17.7527 2.50257 20 5.57874 20H12.9892C16.0644 20 18.567 17.7527 18.567 14.991V7.59754C18.567 4.83508 16.0644 2.58773 12.9892 2.58773" fill="#222222"/>
<path fill-rule="evenodd" clip-rule="evenodd" d="M14.1775 10.4232L10.0041 11.9114V10.0559C10.0041 9.87299 9.90594 9.6991 9.7405 9.59216C9.57687 9.48521 9.36507 9.45501 9.1669 9.51052L3.8336 11.0788C3.49998 11.1767 3.31726 11.5008 3.42635 11.8029C3.47907 11.949 3.59361 12.0682 3.74633 12.1368C3.89995 12.2062 4.07267 12.216 4.23266 12.1694L8.72692 10.8477V12.7572C8.72692 12.9474 8.83146 13.1254 9.00782 13.2323C9.11508 13.2968 9.2378 13.3311 9.36597 13.3311C9.44597 13.3311 9.52506 13.3172 9.60141 13.2903L14.6484 11.4902C14.9756 11.3735 15.1365 11.0396 15.0065 10.7457C14.8774 10.4526 14.5047 10.3065 14.1775 10.4232" fill="#222222"/>
<path d="M19.6001 4.49057C19.6001 5.80844 18.3962 6.94803 16.8183 6.94803C15.2405 6.94803 14.0365 5.80844 14.0365 4.49057C14.0365 3.1727 15.2405 2.03311 16.8183 2.03311C18.3962 2.03311 19.6001 3.1727 19.6001 4.49057Z" fill="#D81B46" stroke="#F6F6F6" stroke-width="0.799626"/>
</svg>
