<svg width="20" height="20" viewBox="0 0 20 20" fill="none" xmlns="http://www.w3.org/2000/svg">
<path fill-rule="evenodd" clip-rule="evenodd" d="M10 20C15.5228 20 20 15.5228 20 10C20 4.47715 15.5228 0 10 0C4.47715 0 0 4.47715 0 10C0 15.5228 4.47715 20 10 20Z" fill="#222222"/>
<path fill-rule="evenodd" clip-rule="evenodd" d="M11.7953 8.46175C11.7953 9.45148 10.9903 10.2566 10.0005 10.2566C9.01074 10.2566 8.20551 9.45148 8.20551 8.46175C8.20551 7.47201 9.01074 6.66666 10.0005 6.66666C10.9903 6.66666 11.7953 7.47201 11.7953 8.46175ZM9.79569 10.7694H10.2047C12.0763 10.7694 13.3337 11.7208 13.3337 13.1373C13.3337 13.2457 13.2344 13.3336 13.1118 13.3336H6.88885C6.76658 13.3336 6.66699 13.2457 6.66699 13.1373C6.66699 11.7208 7.92438 10.7694 9.79569 10.7694Z" fill="#F6F6F6"/>
</svg>
