<svg width="20" height="20" viewBox="0 0 20 20" fill="none" xmlns="http://www.w3.org/2000/svg">
<path d="M9.9699 19.9903C8.7223 19.9903 7.49658 20.0121 6.24897 19.9903C2.83447 19.9028 0.0984952 17.1919 0.0328317 13.7596C-0.0109439 11.2892 -0.0109439 8.79694 0.0328317 6.32654C0.0766074 2.91607 2.63748 0.227044 6.07387 0.0740106C8.65663 -0.0352994 11.2613 -0.0134374 13.844 0.0740106C17.2804 0.18332 19.8632 2.82862 19.9508 6.28282C20.0164 8.79694 20.0164 11.3111 19.9508 13.8252C19.8413 17.345 17.1272 19.9466 13.6033 19.9903C12.3776 20.0121 11.1737 19.9903 9.9699 19.9903ZM9.94802 18.4381C11.1518 18.4381 12.3557 18.4818 13.5595 18.4381C16.3393 18.3506 18.3748 16.3393 18.4186 13.5629C18.4624 11.639 18.3967 9.69329 18.4405 7.76943C18.4624 6.9824 18.1997 6.67633 17.3899 6.67633C12.4651 6.69819 7.54036 6.69819 2.61559 6.67633C1.87141 6.67633 1.54309 6.89495 1.56498 7.66012C1.58687 9.67142 1.5212 11.6609 1.58687 13.6722C1.67442 16.3612 3.64432 18.3069 6.33652 18.4162C7.54036 18.4818 8.74419 18.4381 9.94802 18.4381ZM13.0342 5.12413C12.3119 3.85613 11.7866 2.91607 11.2175 1.99787C11.1081 1.82297 10.8892 1.64807 10.7141 1.64807C9.40082 1.62621 8.08755 1.62621 6.51163 1.62621C7.21204 2.85048 7.73735 3.81241 8.30643 4.77434C8.39398 4.92737 8.65663 5.10227 8.83174 5.12413C10.1231 5.12413 11.4145 5.12413 13.0342 5.12413ZM13.078 1.6918C13.9754 4.73061 15.8796 5.91116 18.0684 4.86179C17.3899 2.71931 15.3981 1.40759 13.078 1.6918ZM1.84952 5.01482C3.49111 5.01482 4.95759 5.01482 6.62107 5.01482C6.05198 4.00917 5.63611 3.17841 5.11081 2.41324C4.97948 2.21649 4.4104 2.10718 4.14774 2.21649C3.03146 2.76304 2.26539 3.63751 1.84952 5.01482Z" fill="#222222"/>
<path d="M13.472 12.5353C11.7866 13.4973 10.1012 14.4592 8.394 15.3555C8.26267 15.4211 7.6717 15.0057 7.64981 14.7871C7.58415 13.1256 7.58415 11.4641 7.64981 9.80258C7.64981 9.58396 8.30644 9.12486 8.45966 9.19044C10.145 10.0649 11.7866 11.0269 13.4501 11.9669C13.4501 12.1637 13.4501 12.3604 13.472 12.5353Z" fill="#222222"/>
</svg>
