<svg width="235" height="115" viewBox="0 0 235 115" fill="none" xmlns="http://www.w3.org/2000/svg">
<path d="M223.004 34.2241C229.737 38.1749 232.361 44.6295 229.314 50.1138C228.674 51.2666 227.249 53.0746 226.573 52.915C224.968 52.5391 223.404 51.3522 222.194 50.1336C221.343 49.2689 221.034 47.8297 220.598 46.6062C219.332 43.0695 216.88 40.8521 213.173 40.589C209.129 40.2994 205.579 41.9312 203.618 45.4745C201.893 48.6578 200.572 52.0435 199.684 55.5539C198.12 61.5801 197.189 67.7711 195.675 73.8131C193.771 81.4033 189.934 87.723 182.59 91.3076C176.853 94.1098 171.075 94.3229 165.385 91.1422C164.587 90.6965 164.07 89.7488 163.423 89.0326C164.32 88.4087 165.136 87.4844 166.13 87.234C167.351 86.9362 168.704 87.1825 170.01 87.2485C179.88 87.721 186.718 82.294 188.576 72.6827C190.202 64.2874 191.431 55.7645 193.866 47.6029C196.019 40.3795 200.191 34.2104 208.363 32.1086C213.586 30.7652 218.408 31.525 223.004 34.2241Z" fill="#989898"/>
<path d="M59.1719 82.7H51.0719V94H35.2719V82.7H1.27188V74.7L36.2719 28.8H51.0719V66.9H59.1719V82.7ZM35.2719 68.1V52.4H34.8719L23.3719 68.1H35.2719ZM92.0594 95.2C86.5927 95.2 81.7927 93.8 77.6594 91C73.526 88.2 70.326 84.2333 68.0594 79.1C65.7927 73.9667 64.6594 68 64.6594 61.2C64.6594 54.4667 65.7927 48.5667 68.0594 43.5C70.326 38.4333 73.526 34.5333 77.6594 31.8C81.7927 29 86.5927 27.6 92.0594 27.6C97.526 27.6 102.293 29 106.359 31.8C110.426 34.5333 113.559 38.4333 115.759 43.5C118.026 48.5667 119.159 54.4667 119.159 61.2C119.159 68 118.026 73.9667 115.759 79.1C113.559 84.2333 110.426 88.2 106.359 91C102.293 93.8 97.526 95.2 92.0594 95.2ZM92.0594 80.4C94.8594 80.4 97.0927 78.6667 98.7594 75.2C100.426 71.6667 101.259 67 101.259 61.2C101.259 55.4 100.426 50.7667 98.7594 47.3C97.0927 43.7667 94.8594 42 92.0594 42C89.1927 42 86.8594 43.7667 85.0594 47.3C83.326 50.7667 82.4594 55.4 82.4594 61.2C82.4594 67 83.326 71.6667 85.0594 75.2C86.8594 78.6667 89.1927 80.4 92.0594 80.4ZM181.141 82.7H173.041V94H157.241V82.7H123.241V74.7L158.241 28.8H173.041V66.9H181.141V82.7ZM157.241 68.1V52.4H156.841L145.341 68.1H157.241Z" fill="#989898"/>
<path d="M23.2898 19.0004C23.6989 19.1301 24.2986 19.2983 24.8834 19.5105C28.8158 20.935 32.5565 22.7259 35.7275 25.5126C36.6721 26.3411 37.4785 27.3346 38.287 28.3057C38.8664 29.0002 38.6993 29.5018 37.8854 29.922C32.8103 32.5457 29.9606 36.7289 29.1681 42.3612C29.1456 42.5209 29.1371 42.6827 29.1114 42.8403C28.9861 43.6163 28.3424 43.926 27.6967 43.4705C25.2057 41.717 23.2256 39.5467 22.25 36.5874C21.0623 32.983 20.9059 29.2639 21.0398 25.5222C21.0976 23.9006 21.2604 22.2822 21.4039 20.6649C21.4949 19.6434 22.1878 18.9821 23.2898 19.0004ZM23.0157 21.7484C22.9525 22.4837 22.8904 23.1214 22.8454 23.7591C22.6001 27.2435 22.6462 30.7129 23.3412 34.1555C23.8767 36.7782 25.0815 39.0065 27.0895 40.7889C27.2287 40.9121 27.3786 41.0236 27.5778 41.1854C28.3778 36.9744 30.3311 33.5125 33.53 30.6979C30.9094 26.6776 27.1141 24.1075 23.0157 21.7484Z" fill="#989898"/>
<path d="M57.9239 26.5517C57.8718 30.1785 57.6953 32.9917 56.9979 35.7502C56.1346 39.1666 54.104 41.7082 51.3174 43.7068C50.5732 44.2434 49.9353 43.8763 49.8428 42.8889C49.4313 38.5408 47.6516 34.8829 44.3494 32.0482C43.4266 31.2561 42.3538 30.6314 41.3077 30.0025C40.4795 29.5044 40.3359 29.0869 40.9164 28.2937C42.5112 26.1095 44.6077 24.5049 46.8861 23.1235C49.4422 21.5786 52.1677 20.3395 55.0077 19.4312C56.4738 18.959 57.3668 19.5385 57.5061 21.0874C57.6932 23.1696 57.8261 25.2573 57.9239 26.5517ZM55.9199 21.9235C54.5154 22.8294 53.2056 23.6161 51.9638 24.4845C49.6248 26.1073 47.5123 27.9653 45.875 30.3309C45.638 30.6733 45.6433 30.8676 45.9654 31.1681C48.2437 33.2616 49.916 35.9405 50.8039 38.9186C51.0452 39.7172 51.2292 40.5286 51.4418 41.3766C51.537 41.3223 51.6283 41.2613 51.715 41.1941C53.397 39.671 54.6504 37.8743 55.2586 35.646C56.1208 32.4915 56.2707 29.2715 56.1665 26.029C56.124 24.7152 56.0113 23.4036 55.9199 21.9235Z" fill="#989898"/>
</svg>
