<svg width="115" height="107" viewBox="0 0 115 107" fill="none" xmlns="http://www.w3.org/2000/svg">
<path d="M90.7989 11.3739C90.7993 11.3745 90.7996 11.3751 90.8 11.3757L86.6538 14.0983M90.7989 11.3739C90.7983 11.373 90.7977 11.3721 90.7971 11.3713L86.6538 14.0983M90.7989 11.3739C83.9605 0.961665 71.4119 -2.5584 60.4169 3.38159L60.41 3.38529L60.4032 3.389C59.9003 3.66274 59.3869 3.97957 58.8787 4.31591L90.7989 11.3739ZM86.6538 14.0983C86.9601 14.5601 87.2552 15.0404 87.5382 15.5394C89.041 18.2253 90.0269 21.1746 90.4428 24.2321L90.4461 24.2561L90.4496 24.2801C90.4808 24.494 90.5297 24.7791 90.6172 25.1084V27.4229C90.5056 22.6064 89.2713 18.1476 86.6206 14.1201C81.1369 5.7692 71.3947 3.13388 62.7935 7.78067C62.4398 7.97315 62.0951 8.18154 61.7543 8.40279C61.7339 8.36968 61.7133 8.3367 61.6925 8.30385C62.036 8.08164 62.384 7.87199 62.7359 7.67493C62.736 7.67487 62.7361 7.67481 62.7362 7.67474C70.7279 3.20038 80.7632 5.21739 86.6538 14.0983ZM33.5122 8.94567L33.5123 8.94581L33.5122 8.94567ZM33.5122 8.94567L33.5117 8.94513L33.5122 8.94567ZM93.9165 29.3816H94.9104C95.1149 29.4349 95.3044 29.474 95.4731 29.5035C101.866 30.6909 106.802 35.2935 108.87 41.3706C109.339 42.7494 109.661 44.204 109.818 45.7119C109.614 44.2498 109.259 42.8088 108.747 41.416C106.196 34.494 101.345 30.2715 93.9147 29.3976C93.8643 29.3918 93.8138 29.3864 93.7633 29.3816H93.9165Z" fill="#222222" stroke="#222222" stroke-width="10"/>
<path d="M53.9772 84.9215L53.9691 84.9216C50.936 84.9777 48.2861 85.8657 46.0603 86.8231L46.0594 86.8234C41.5759 88.7529 37.7643 88.2422 34.1703 85.2304C30.7848 82.3856 29.7019 78.9075 30.8528 74.3949L30.8532 74.3931C31.5747 71.56 33.2641 69.312 35.8656 67.6427L35.8685 67.6408C39.9191 65.0377 43.2044 61.8358 46.0773 58.3316L46.0782 58.3305C50.7402 52.6406 58.6999 51.3555 65.0778 55.2889L65.081 55.2909C66.7417 56.3134 68.1388 57.8035 69.6485 59.8618C72.0393 63.1259 74.9355 65.6884 78.044 67.8127L78.0456 67.8138C81.2812 70.0231 83.1426 72.7218 83.6625 76.2067L83.6625 76.2068C84.5064 81.8624 80.655 87.1526 75.0685 88.114C74.5617 88.2 74.1518 88.239 73.5959 88.2919C73.3387 88.3163 73.0502 88.3438 72.7065 88.3802C70.8686 88.2892 69.3391 87.9092 68.0083 87.1955C65.5186 85.8492 62.7514 85.1001 59.9232 85.0085C58.012 84.9414 56.0113 84.8871 53.9772 84.9215Z" fill="#222222" stroke="#222222" stroke-width="10"/>
<path d="M74.8826 20.8451L74.8809 20.843C73.8478 19.6086 72.7201 19.1078 71.7582 19.0126C70.8044 18.9183 69.6379 19.1843 68.4298 20.181L74.8826 20.8451ZM74.8826 20.8451C76.3049 22.5427 77.0362 24.5893 77.1348 27.105C77.2621 30.509 76.3798 33.2382 74.352 35.4933C73.0064 36.9825 71.5734 37.4152 70.4299 37.3426C69.2807 37.2696 67.8943 36.6517 66.7263 34.999C65.6556 33.4725 64.8964 31.4187 64.8847 27.7346M74.8826 20.8451L64.8847 27.7346M64.8847 27.7346C64.9949 24.946 65.9945 22.1907 68.4297 20.1811L64.8847 27.7346Z" fill="#222222" stroke="#222222" stroke-width="10"/>
<path d="M48.271 35.2268L48.2757 35.2216C49.8894 33.4317 50.678 31.1524 50.7032 27.8234C50.636 24.6754 49.7113 22.114 47.6657 20.1179C46.4502 18.9376 45.2191 18.5768 44.2089 18.6237C43.1915 18.6708 41.9732 19.1522 40.8427 20.4506L48.271 35.2268ZM48.271 35.2268C47.0924 36.5377 45.8742 36.9789 44.8774 37.0003M48.271 35.2268L44.8774 37.0003M44.8774 37.0003C43.8736 37.0218 42.612 36.6269 41.3487 35.362L44.8774 37.0003ZM41.3486 35.362C39.6764 33.6852 38.5838 31.0065 38.4806 27.9989C38.3774 24.9912 39.284 22.2422 40.8421 20.4512L41.3486 35.362Z" fill="#222222" stroke="#222222" stroke-width="10"/>
<path d="M19.7106 43.6612L19.7085 43.6643C19.0095 44.7204 18.6029 46.0516 18.5271 48.2545C18.6854 51.4436 19.7543 53.8786 22.0641 55.6319C23.9661 57.0641 26.0634 56.5877 27.1752 54.908L19.7106 43.6612ZM19.7106 43.6612C20.9875 41.729 22.9541 41.3614 24.8284 42.6605L19.7106 43.6612ZM24.8286 42.6606C26.5117 43.8276 27.7985 45.8832 28.2706 48.3425C28.7425 50.8012 28.3095 53.1922 27.1757 54.9072L24.8286 42.6606Z" fill="#222222" stroke="#222222" stroke-width="10"/>
<path d="M90.3618 43.6034L90.3653 43.601C91.5706 42.7985 92.5761 42.7476 93.2892 42.9369C94.0188 43.1305 94.93 43.708 95.6504 45.0623L95.6522 45.0657C96.5132 46.6814 96.7667 48.9664 96.1832 51.3279C95.5992 53.6909 94.3159 55.5719 92.8254 56.574L92.8252 56.5741C91.4764 57.4809 90.287 57.5133 89.4583 57.2427C88.6378 56.9748 87.7099 56.2604 87.1674 54.7339C86.999 54.2533 86.8583 53.6832 86.724 53.0231C86.6663 52.7398 86.6158 52.4709 86.5617 52.183C86.5526 52.1345 86.5433 52.0854 86.534 52.0356C86.5163 51.942 86.4974 51.8419 86.4774 51.738C86.797 47.399 88.0644 45.13 90.3618 43.6034Z" fill="#222222" stroke="#222222" stroke-width="10"/>
</svg>
