<svg width="20" height="20" viewBox="0 0 20 20" fill="none" xmlns="http://www.w3.org/2000/svg">
<path fill-rule="evenodd" clip-rule="evenodd" d="M1.22449 5.10213C1.22449 2.96417 2.96408 1.22458 5.10204 1.22458H14.898C17.0359 1.22458 18.7755 2.96417 18.7755 5.10213V14.8981C18.7755 17.036 17.0359 18.7756 14.898 18.7756H5.10204C2.96408 18.7756 1.22449 17.036 1.22449 14.8981V5.10213ZM5.10204 20H14.898C17.711 20 20 17.711 20 14.898V5.10204C20 2.28898 17.711 0 14.898 0H5.10204C2.28898 0 0 2.28898 0 5.10204V14.898C0 17.711 2.28898 20 5.10204 20ZM13.9795 9.38803C14.2613 9.38803 14.4897 9.61646 14.4897 9.89823C14.4897 10.18 14.2613 10.4084 13.9795 10.4084H10.4081V13.9799C10.4081 14.2616 10.1797 14.4901 9.89789 14.4901C9.61611 14.4901 9.38768 14.2616 9.38768 13.9799V10.4084H6.02034C5.73856 10.4084 5.51013 10.18 5.51013 9.89823C5.51013 9.61646 5.73856 9.38803 6.02034 9.38803H9.38768V6.02068C9.38768 5.7389 9.61611 5.51048 9.89789 5.51048C10.1797 5.51048 10.4081 5.7389 10.4081 6.02068V9.38803H13.9795Z" fill="#222222"/>
</svg>
