<svg width="20" height="20" viewBox="0 0 20 20" fill="none" xmlns="http://www.w3.org/2000/svg">
<g clip-path="url(#clip0)">
<path fill-rule="evenodd" clip-rule="evenodd" d="M16.4973 5.39601V6.92935C18.5236 7.46696 20 9.02614 20 10.8884V15.8253C20 18.1308 17.7513 20 14.9791 20H5.02212C2.24866 20 0 18.1308 0 15.8253V10.8884C0 9.02614 1.47759 7.46696 3.50269 6.92935V5.39601C3.51464 2.41479 6.41961 0 9.98207 0C13.5924 0 16.4973 2.41479 16.4973 5.39601ZM10.006 1.73904C12.4328 1.73904 14.4053 3.37871 14.4053 5.39601V6.7137H5.59474V5.37613C5.60669 3.36878 7.5792 1.73904 10.006 1.73904ZM11.046 14.4549C11.046 14.9419 10.5798 15.3294 9.99402 15.3294C9.4202 15.3294 8.95398 14.9419 8.95398 14.4549V12.2488C8.95398 11.7718 9.4202 11.3843 9.99402 11.3843C10.5798 11.3843 11.046 11.7718 11.046 12.2488V14.4549Z" fill="#222222"/>
</g>
<defs>
<clipPath id="clip0">
<rect width="20" height="20" fill="white"/>
</clipPath>
</defs>
</svg>
