<svg width="116" height="35" viewBox="0 0 116 35" fill="none" xmlns="http://www.w3.org/2000/svg">
<path d="M3.6 15.1C3.6 14.9 3.7 14.7 4.1 14.7C4.4 14.7 4.8 14.7 5.4 14.7H5.8C5.9 11.8 6.1 8.8 6.3 3.7C4 4.8 2.1 6.2 1.6 7.2C0.8 6.9 0 5.8 0 4.6C0 4 0.2 3.4 0.7 2.7C2.1 0.9 5.8 0 9.6 0C12.6 0 15.8 0.6 17.5 1.7C19.7 3.2 20.7 5.2 20.7 7C20.7 9.1 19.5 11.2 17.8 12.9C15.9 14.8 12.9 16 10.2 16.6V18.3C10.2 21.8 10.3 25.6 10.4 27.2C10.1 27.2 9.9 27.2 9.7 27.2C8.3 27.2 6.9 26.6 6.4 25.3C6 24.4 5.9 22.2 5.9 19.3V17C5.6 17 4.9 16.7 4.4 16.3C3.9 15.8 3.6 15.4 3.6 15.1ZM10.2 13.9C11.5 13.4 12.9 12.6 14.2 11.4C15.5 10.1 16.5 7.9 16.5 6C16.5 3.5 14.6 2.4 12.1 2.4C11.3 2.4 10.4 2.5 9.5 2.7L9.7 3C10.1 3.9 10.3 6.4 10.3 8.9C10.3 10.2 10.2 11.9 10.2 13.5C10.2 13.6 10.2 13.7 10.2 13.9Z" fill="#222222"/>
<path d="M23.9 17.5C23.9 19.8 24.3 22 25.6 23.3C26.4 24.2 27.4 24.6 28.3 24.6C29.5 24.6 30.8 24 31.8 23C32.8 22 33.6 20.6 33.8 19.1C34.5 19.1 35 19.8 35 20.8C35 20.9 35 21.1 35 21.2C34.7 22.6 34 23.8 33 24.8C31.5 26.2 29.5 27 27.3 27C25.2 27 22.8 26.3 21.2 24.2C19.9 22.6 19.3 20.2 19.3 17.7C19.3 15.2 19.9 12.6 21.2 10.7C22.5 8.8 24.4 8 26.2 8C28.4 8 30.4 9.1 31.1 10.5C31.4 11.1 31.5 11.7 31.5 12.2C31.5 13.5 30.8 14.7 29.6 15.7C28 17 25.9 17.5 23.9 17.5ZM24 15.8C24.9 15.6 25.7 15.3 26.6 14.8C27.7 14 28.3 12.7 28.3 11.8C28.3 10.8 27.7 9.9 26.9 9.9C25.5 9.8 24.3 12.9 24 15.8Z" fill="#222222"/>
<path d="M33.6 23.5C33.3 22.8 33.3 21.5 33.3 19.6C33.3 17.4 33.4 14.6 33.6 11.8C33.6 11.4 33.6 10.8 33.7 10.3C32.4 10.3 31.5 10.2 31.3 10.2C31.3 10.2 31.2 9.70001 31.2 9.30001C31.2 9.00001 31.3 8.80001 31.5 8.70001C32 8.60001 32.8 8.50001 33.8 8.40001C33.8 7.40001 33.8 6.60001 33.8 5.40001C33.8 3.70001 33.8 2.60001 34.2 1.50001C34.4 1.30001 34.7 1.20001 35.1 1.20001C36.1 1.20001 37.5 2.20001 38.1 4.60001C37.9 5.00001 38 5.70001 38 6.60001C38 7.10001 38 7.70001 38 8.40001C38.7 8.40001 39.3 8.40001 39.9 8.40001C40.6 8.40001 41.2 8.40001 41.6 8.30001C41.7 8.50001 41.7 8.70001 41.7 8.90001C41.7 9.50001 41.3 9.90001 40 10.1C39.5 10.2 38.7 10.3 37.9 10.3C37.8 11 37.7 11.8 37.6 12.5C37.3 15.4 37.1 17.9 37.1 19.9C37.1 22.2 37.4 24 38 24.5C38.3 24.7 38.5 24.8 38.9 24.8C40.3 24.8 42.1 22.9 42.5 20.8C42.9 20.8 43.5 21.3 43.5 22.3C43.5 22.6 43.5 22.9 43.3 23.4C42.4 25.8 40.4 27 38.2 27C35.5 27 34.2 25.4 33.6 23.5Z" fill="#222222"/>
<path d="M51.7 22.7C51.7 21 52.1 18.7 52.1 18C51.2 20.7 50.1 23.8 48.8 25.4C48.2 26.1 47.5 26.7 46.4 26.7C45.6 26.7 44.8 26.4 44.1 25.7C43.2 24.9 42.4 23.7 41.9 22C41.5 20.8 41.3 19.4 41.3 18.1C41.3 15.7 41.9 13.4 43 11.5C44.2 9.59999 46 8.29999 48.2 8.29999C49.4 8.29999 51.2 9.09999 52.1 10.7C52.2 10.3 52.3 9.89999 52.3 9.49999C52.3 9.29999 52.7 9.19999 53.1 9.19999C54.1 9.19999 55.7 9.79999 56.3 10.7C56.4 10.9 56.4 11.1 56.4 11.3C56.2 12.8 56.3 13.9 56.2 16.4C56.1 18.4 55.9 23.1 55.9 23.5C56.7 23 57.4 22.4 58 21.9C58.7 21.3 59.3 20.7 59.7 20.2C60.1 20.4 60.6 20.9 60.6 21.7C60.6 22.1 60.4 22.6 60.1 23.1C59.2 24.3 57.5 25.4 55.7 26.4C55.4 28.4 54.9 30.5 53.7 31.9C52.5 33.3 50.4 33.9 48.5 33.9C47.2 33.9 44.3 33.5 44.3 31.5C44.3 31.1 44.4 30.7 44.7 30.3C45.5 29.1 47.3 28.2 48.9 27.4C50 26.9 51.8 25.9 51.8 25.9C51.6 25.7 51.7 24.6 51.7 22.7ZM49.6 19.7C50.4 17.9 51 15.7 51.6 13.6C51.4 12 50.3 10.8 49.2 10.8C47.6 10.8 46.3 14.6 46 17.6C45.9 18.5 45.9 19.4 45.9 20.1C45.9 22.6 46.4 23.8 47.2 23.8C47.8 23.7 48.7 21.8 49.6 19.7ZM51.4 28.8C50.9 29 48.7 30.1 48.1 30.5C47.9 30.6 47.5 31 47.5 31.3C47.5 31.7 48.1 31.9 48.8 31.9C49.5 31.9 50.3 31.6 50.7 30.9C51 30.2 51.2 29.5 51.4 28.8Z" fill="#222222"/>
<path d="M62.8 26.6C62.5 26.7 62.3 26.8 62 26.8C60.8 26.8 59.6 25.8 59.3 24.9C58.9 23.8 58.7 21.3 58.7 18.7C58.7 17.2 58.7 15.2 58.8 13.8C58.8 12.6 58.9 11.6 58.9 10.8C58.9 10 58.8 9.5 58.8 9.1C59.1 9 59.3 9 59.6 9C60.6 9 61.6 9.6 62.2 10.6C62.9 11.7 63 13.2 63 14.7V16C63.3 14.9 63.7 13.9 64.1 13.2C64.1 12.9 64 12.7 64 12.4C64 12 64 11.6 64.1 11.1C64.4 10.1 64.7 9.3 65.3 8.8C65.5 8.6 65.8 8.5 66.1 8.5C67.3 8.5 68.8 9.7 68.8 11.2C68.8 12.2 67.3 13.9 67.3 13.9C67.3 13.9 67.9 15.8 69.7 16.1C69.8 16.1 70 16.1 70.1 16.1C71.3 16.1 72.3 15.1 72.6 13.9C73.2 14 73.6 14.5 73.6 15.4C73.6 17.2 71.9 18.4 69.9 18.4C67.9 18.4 66.1 17.4 65.1 16C64.6 16.8 64.2 17.8 63.8 18.8C63.3 20.1 62.9 21.5 62.9 22.4C62.7 23.9 62.7 25.2 62.8 26.6Z" fill="#222222"/>
<path d="M85.8 24.7C87.1 24.7 88.6 22.1 88.9 20.9C89.3 21 89.8 21.5 89.8 22.4C89.8 22.7 89.8 22.9 89.7 23.2C89.1 25 87.3 26.9 85.1 26.9C84.2 26.9 83 26.4 82.3 25.9C81.7 25.5 81.3 24.9 81.1 24.3C80.8 22.9 80.7 22 80.7 21.1C80.7 20.6 80.7 20.2 80.8 19.6C80.8 19.5 80.8 19.3 80.8 19.2C80.3 20.9 78.6 26 76.3 26.8C76 26.9 75.7 26.9 75.4 26.9C74.2 26.9 73 26.1 72.1 24.7C71.1 23.2 70.5 21 70.4 18.7V18.3C70.4 14.6 71.9 10.2 74.9 8.99998C75.5 8.69998 76.2 8.59998 76.8 8.59998C78.6 8.59998 80.3 9.49998 81.4 11C81.5 10.6 81.5 10.2 81.5 9.69998C81.5 9.29998 81.8 9.19998 82.2 9.19998C83.3 9.19998 85.3 10.5 85.4 12.1C85.4 12.5 85.3 13.4 85.2 14.4C85 16.5 84.7 19.2 84.7 21.3C84.7 23 84.9 24.3 85.4 24.5C85.5 24.6 85.6 24.7 85.8 24.7ZM77.8 21.8C79 19.8 80.1 16.5 80.8 13.6C80.7 12.4 79.8 10.8 78.6 10.8C78.2 10.8 77.8 11 77.3 11.4C75.8 12.9 75 17.1 75 20C75 21.8 75.5 23.6 76 23.6C76.5 23.6 77.1 22.9 77.8 21.8Z" fill="#222222"/>
<path d="M111.3 27C109.6 27 107.7 25.6 107.1 23.5C106.8 22.4 106.7 21.3 106.7 20.1C106.7 18.3 106.9 16.6 106.9 14.6C106.9 14.3 106.9 13.5 106.7 12.8C106.6 12.3 106.3 11.8 105.9 11.8C105.6 11.8 105.3 12.2 104.9 12.8C104.2 14 103.4 16 102.7 18.2C101.7 21.3 100.9 24.7 100.9 25.9V26.1C100.5 26.2 100.1 26.3 99.7 26.3C98.5 26.3 97.3 25.8 97 24.6C96.9 24.3 96.9 23.9 96.9 23.5C96.9 22.2 97.2 20.5 97.2 18.4C97.2 17.6 97.2 16.7 97.2 16C97.2 13.8 97.1 11.9 96.3 11.9C95.5 11.9 94.3 15 93.2 18.5C92.3 21.6 91.5 24.9 91.5 26.3C91.3 26.4 91.1 26.4 90.9 26.4C89.6 26.4 87.6 25.4 87.5 24C87.5 23.5 87.4 22.8 87.4 21.9C87.4 20.3 87.5 18.3 87.6 16.7C87.7 14.7 87.9 13.2 87.9 11.7C87.9 10.9 87.9 10.2 87.7 9.39999C87.9 9.29999 88.2 9.29999 88.4 9.29999C89.4 9.29999 90.7 9.79999 91.2 10.9C91.4 11.4 91.6 12.4 91.6 13.7C91.6 14 91.6 14.4 91.3 18.6C91.4 18.1 92.2 15 93.1 12.5C93.7 10.9 94.4 8.89999 96.6 8.89999C98.2 8.89999 99.7 10.1 100.3 11.5C100.8 12.7 100.9 14.1 100.9 15.4C100.9 16.2 100.9 16.9 100.8 18C101.4 15.6 102.2 13.8 102.9 12C103.5 10.3 104.6 8.79999 106.2 8.79999C107.7 8.79999 109.7 9.59999 110.4 12C110.6 12.7 110.7 13.4 110.7 14.2C110.7 15.3 110.6 16.4 110.5 17.6C110.5 18.3 110.3 19.9 110.3 21.3C110.3 22.6 110.4 23.9 110.9 24.2C111.1 24.3 111.3 24.4 111.5 24.4C112 24.4 112.6 24 113.1 23.4C113.9 22.5 114.5 21.2 114.7 20.5C115.1 20.6 115.6 21.1 115.6 22C115.6 22.3 115.6 22.5 115.5 22.8C115 24.6 113.1 26.3 111.8 26.7C111.8 27 111.6 27 111.3 27Z" fill="#222222"/>
</svg>
