<svg width="20" height="20" viewBox="0 0 20 20" fill="none" xmlns="http://www.w3.org/2000/svg">
<path d="M19.3279 0.671961C20.2239 1.56792 20.2239 3.02054 19.3279 3.9165L13.2445 9.99994L19.328 16.0835C20.224 16.9795 20.224 18.4321 19.328 19.328C18.4321 20.224 16.9795 20.224 16.0835 19.328L10 13.2445L3.91648 19.328C3.02053 20.224 1.56791 20.224 0.671965 19.328C-0.223987 18.4321 -0.223987 16.9795 0.671956 16.0835L6.75548 9.99994L0.672061 3.9165C-0.223891 3.02054 -0.223891 1.56792 0.672061 0.671961C1.568 -0.223987 3.02063 -0.223987 3.91657 0.671961L10 6.75541L16.0834 0.671961C16.9794 -0.223987 18.432 -0.223987 19.3279 0.671961Z" fill="#f6f6f6"/>
</svg>
