<svg width="20" height="20" viewBox="0 0 20 20" fill="none" xmlns="http://www.w3.org/2000/svg">
<g clip-path="url(#clip0)">
<path fill-rule="evenodd" clip-rule="evenodd" d="M14.939 0C16.28 0 17.57 0.588889 18.519 1.64556C19.469 2.7 20 4.12222 20 5.61111V14.3889C20 17.4889 17.73 20 14.939 20H5.06C2.269 20 0 17.4889 0 14.3889V5.61111C0 2.51111 2.259 0 5.06 0H14.939ZM16.53 7.26667L16.61 7.17778C16.849 6.85556 16.849 6.38889 16.599 6.06667C16.46 5.90112 16.269 5.80001 16.07 5.77778C15.86 5.76556 15.66 5.84445 15.509 6.00001L11 10C10.42 10.5345 9.589 10.5345 9 10L4.5 6.00001C4.189 5.74445 3.759 5.77778 3.5 6.07778C3.23 6.37778 3.2 6.85556 3.429 7.18889L3.56 7.33334L8.11 11.2778C8.67 11.7667 9.349 12.0333 10.06 12.0333C10.769 12.0333 11.46 11.7667 12.019 11.2778L16.53 7.26667Z" fill="#222222"/>
</g>
<defs>
<clipPath id="clip0">
<rect width="20" height="20" fill="white"/>
</clipPath>
</defs>
</svg>
