<svg width="20" height="20" viewBox="0 0 20 20" fill="none" xmlns="http://www.w3.org/2000/svg">
<path d="M0.876607 20C1.10137 18.5939 1.26371 17.3284 1.48847 16.0756C1.66329 15.1425 1.62583 14.3371 1.10137 13.4423C-0.796663 10.1443 -0.184796 6.00263 2.49993 3.16481C6.25854 -0.810703 12.8268 -1.07915 16.8975 2.57679C21.5178 6.73126 20.8934 13.7491 15.5864 17.0343C12.8392 18.7345 9.89229 19.0285 6.82046 18.1593C6.4958 18.0698 6.08372 18.0826 5.75906 18.1976C4.16071 18.7473 2.59983 19.3481 0.876607 20ZM2.35008 18.1593C3.57382 17.6991 4.67268 17.2644 5.79652 16.8937C6.09621 16.7915 6.4958 16.7915 6.79549 16.8937C9.58011 17.7885 12.2648 17.6096 14.8122 16.114C19.4949 13.3528 20.2066 7.30649 16.2982 3.63778C12.6769 0.237502 6.6831 0.44203 3.2991 4.08518C0.826659 6.71848 0.489507 10.5917 2.5249 13.5702C2.84957 14.0559 2.93698 14.4905 2.83708 15.0402C2.64977 16.0373 2.5249 17.0471 2.35008 18.1593Z" fill="#222222"/>
<path d="M16.3231 6.37337C14.4626 8.1502 12.602 9.93982 10.6665 11.7934C10.2794 11.4866 9.68001 11.0519 9.11809 10.5534C8.80591 10.285 8.5312 10.2594 8.15659 10.4128C6.87042 10.9625 5.57176 11.4738 4.28559 11.9851C4.09828 12.0618 3.91098 12.1129 3.71118 12.1896C5.62171 10.2083 7.51974 8.23968 9.45524 6.21997C10.0671 6.71851 10.654 7.24261 11.2908 7.7028C11.5031 7.85619 11.8777 7.92011 12.1025 7.83063C13.4636 7.33209 14.8122 6.78242 16.1733 6.24554C16.2357 6.28389 16.2732 6.33502 16.3231 6.37337ZM11.628 9.5052C10.8913 8.91718 10.217 8.36751 9.56763 7.85619C9.19301 8.23968 8.88084 8.57204 8.68104 8.77657C9.35535 9.26232 10.0671 9.78642 10.8288 10.3489C11.0911 10.0549 11.3533 9.78642 11.628 9.5052Z" fill="#222222"/>
<path d="M12.5 9.70513C12.0339 10.0812 11.6102 10.4402 11.1441 10.8333C9.85169 10.0983 8.64407 9.39744 7.5 8.73077C7.86017 8.44017 8.38983 8.01282 9.00424 7.5C10.1059 8.20085 11.25 8.9188 12.5 9.70513Z" fill="#222222"/>
</svg>
