<svg width="20" height="20" viewBox="0 0 20 20" fill="none" xmlns="http://www.w3.org/2000/svg">
<path d="M10.0147 19.9903C8.90101 19.9903 7.78737 19.9979 6.67372 19.9903C3.04405 19.9753 0.222809 17.5849 0.0165776 14.2822C-0.0494164 13.1586 0.09907 12.0276 0.156815 10.8965C0.198061 9.97656 0.264055 9.06416 0.297052 8.15175C0.396043 5.72371 2.44186 3.87629 5.11461 3.84613C5.51882 3.83858 5.66731 3.76318 5.72506 3.37107C6.02203 1.403 7.89461 -0.0296946 10.0642 0.000467444C12.2337 0.0306295 14.0485 1.51611 14.3043 3.48418C14.3373 3.75564 14.4198 3.83858 14.725 3.84613C17.6205 3.89137 19.5673 5.63323 19.6993 8.2724C19.7818 10.0293 19.8725 11.7863 19.988 13.5432C20.2107 17.0722 17.307 19.9451 13.4381 19.9979C12.2997 20.0054 11.1531 19.9903 10.0147 19.9903ZM10.0229 4.82639C8.39781 4.82639 6.78096 4.81131 5.15586 4.82639C3.04405 4.84901 1.46844 6.26663 1.3777 8.197C1.28696 10.052 1.18797 11.9145 1.08898 13.7694C0.956991 16.4463 3.21728 18.8517 6.13752 18.9573C8.70303 19.0553 11.2768 19.0553 13.8423 18.9573C16.812 18.8442 19.0806 16.386 18.8991 13.6639C18.7836 11.8843 18.6846 10.0972 18.6104 8.31765C18.5196 6.22893 16.9688 4.83393 14.6837 4.82639C13.1246 4.82639 11.5738 4.82639 10.0229 4.82639ZM13.2236 3.80842C13.1741 2.2023 11.615 0.920409 9.85793 0.995814C8.17508 1.06368 6.69022 2.42097 6.79746 3.80842C8.92576 3.80842 11.0623 3.80842 13.2236 3.80842Z" fill="#222222"/>
<path d="M14.3297 7.56364C14.4617 10.0219 12.2014 11.9221 9.63591 11.7411C7.54885 11.5903 5.79176 9.99169 5.66802 8.0764C5.64327 7.69183 5.65152 7.29972 5.65977 6.90762C5.65977 6.59846 5.833 6.40994 6.17947 6.38732C6.49294 6.3647 6.71567 6.58338 6.73217 6.91516C6.74042 7.2017 6.73217 7.49578 6.74042 7.78232C6.76517 9.44123 8.20054 10.7457 9.99888 10.7457C11.7807 10.7457 13.2078 9.44877 13.2408 7.80494C13.2491 7.52594 13.2408 7.25448 13.2408 6.97548C13.2491 6.606 13.4471 6.38732 13.7688 6.37978C14.107 6.37224 14.3132 6.59092 14.3215 6.99056C14.338 7.18662 14.3297 7.37513 14.3297 7.56364Z" fill="#222222"/>
</svg>
