<svg width="184" height="115" viewBox="0 0 184 115" fill="none" xmlns="http://www.w3.org/2000/svg">
<path d="M59.1719 82.7H51.0719V94H35.2719V82.7H1.27188V74.7L36.2719 28.8H51.0719V66.9H59.1719V82.7ZM35.2719 68.1V52.4H34.8719L23.3719 68.1H35.2719ZM92.0594 95.2C86.5927 95.2 81.7927 93.8 77.6594 91C73.526 88.2 70.326 84.2333 68.0594 79.1C65.7927 73.9667 64.6594 68 64.6594 61.2C64.6594 54.4667 65.7927 48.5667 68.0594 43.5C70.326 38.4333 73.526 34.5333 77.6594 31.8C81.7927 29 86.5927 27.6 92.0594 27.6C97.526 27.6 102.293 29 106.359 31.8C110.426 34.5333 113.559 38.4333 115.759 43.5C118.026 48.5667 119.159 54.4667 119.159 61.2C119.159 68 118.026 73.9667 115.759 79.1C113.559 84.2333 110.426 88.2 106.359 91C102.293 93.8 97.526 95.2 92.0594 95.2ZM92.0594 80.4C94.8594 80.4 97.0927 78.6667 98.7594 75.2C100.426 71.6667 101.259 67 101.259 61.2C101.259 55.4 100.426 50.7667 98.7594 47.3C97.0927 43.7667 94.8594 42 92.0594 42C89.1927 42 86.8594 43.7667 85.0594 47.3C83.326 50.7667 82.4594 55.4 82.4594 61.2C82.4594 67 83.326 71.6667 85.0594 75.2C86.8594 78.6667 89.1927 80.4 92.0594 80.4ZM181.141 82.7H173.041V94H157.241V82.7H123.241V74.7L158.241 28.8H173.041V66.9H181.141V82.7ZM157.241 68.1V52.4H156.841L145.341 68.1H157.241Z" fill="#989898"/>
<path d="M60.4647 14.0006C61.0837 14.1968 61.9911 14.4514 62.8759 14.7725C68.826 16.9278 74.486 19.6377 79.284 23.8541C80.7132 25.1077 81.9334 26.611 83.1568 28.0803C84.0334 29.1312 83.7807 29.8902 82.5492 30.5259C74.8701 34.4958 70.5582 40.8254 69.3591 49.3475C69.3251 49.5892 69.3121 49.8341 69.2732 50.0724C69.0836 51.2466 68.1098 51.7153 67.1327 51.026C63.3636 48.3729 60.3675 45.0889 58.8913 40.6113C57.0943 35.1575 56.8577 29.5301 57.0602 23.8687C57.1477 21.4151 57.394 18.9663 57.6112 16.5191C57.7489 14.9736 58.7973 13.973 60.4647 14.0006ZM60.0499 18.1586C59.9543 19.2711 59.8603 20.2361 59.7922 21.201C59.4212 26.4732 59.4908 31.7227 60.5425 36.9317C61.3527 40.9 63.1756 44.2716 66.2139 46.9685C66.4245 47.155 66.6514 47.3236 66.9528 47.5685C68.1632 41.1968 71.1188 35.9586 75.959 31.7C71.9939 25.6169 66.2512 21.728 60.0499 18.1586Z" fill="#989898"/>
<path d="M128 25.4264C127.921 30.914 127.654 35.1706 126.599 39.3444C125.293 44.5138 122.22 48.3595 118.004 51.3835C116.878 52.1955 115.912 51.6401 115.773 50.146C115.15 43.567 112.457 38.0322 107.461 33.7431C106.064 32.5446 104.441 31.5994 102.858 30.6477C101.605 29.8941 101.388 29.2624 102.266 28.0622C104.679 24.7573 107.851 22.3293 111.299 20.2392C115.166 17.9017 119.29 16.0268 123.587 14.6525C125.806 13.9379 127.157 14.8149 127.368 17.1584C127.651 20.309 127.852 23.4678 128 25.4264ZM124.968 18.4235C122.843 19.7942 120.861 20.9846 118.982 22.2985C115.443 24.754 112.246 27.5652 109.769 31.1446C109.41 31.6627 109.418 31.9567 109.906 32.4114C113.353 35.5791 115.883 39.6324 117.227 44.1386C117.592 45.3469 117.87 46.5747 118.192 47.8577C118.336 47.7755 118.474 47.6833 118.605 47.5816C121.15 45.2771 123.047 42.5584 123.967 39.1869C125.272 34.4138 125.499 29.5417 125.341 24.6355C125.277 22.6476 125.106 20.663 124.968 18.4235Z" fill="#989898"/>
</svg>
